<?xml version="1.0" standalone="no"?>
<!DOCTYPE svg PUBLIC "-//W3C//DTD SVG 20010904//EN"
 "http://www.w3.org/TR/2001/REC-SVG-20010904/DTD/svg10.dtd">
<svg version="1.0" xmlns="http://www.w3.org/2000/svg"
 width="512.000000pt" height="512.000000pt" viewBox="0 0 512.000000 512.000000"
 preserveAspectRatio="xMidYMid meet">
<metadata>
Created by potrace 1.14, written by Peter Selinger 2001-2017
</metadata>
<g transform="translate(0.000000,512.000000) scale(0.100000,-0.100000)"
fill="#000000" stroke="none">
<path d="M1199 4716 c-2 -2 -24 -6 -49 -9 -48 -7 -112 -23 -145 -36 -148 -63
-223 -111 -312 -199 -100 -99 -179 -230 -217 -363 -9 -31 -20 -67 -24 -80 -3
-13 -8 -636 -9 -1384 -3 -1548 -8 -1446 79 -1635 37 -80 99 -172 150 -223 21
-21 38 -42 38 -48 0 -6 4 -8 9 -4 5 3 16 -3 23 -13 14 -19 117 -90 132 -90 5
0 12 -4 15 -9 5 -7 52 -32 71 -38 3 -1 13 -5 23 -8 20 -8 40 -14 47 -15 3 0
18 -6 34 -12 16 -6 45 -13 65 -16 20 -2 47 -7 61 -10 36 -8 2578 -7 2680 1 47
4 90 11 96 16 6 5 14 6 17 3 3 -3 12 -2 19 2 7 5 21 10 31 11 10 2 38 12 62
23 24 11 47 20 50 20 3 0 30 16 60 35 30 19 55 32 55 30 0 -7 55 43 119 105
60 59 106 117 128 160 10 19 23 42 29 50 20 25 65 161 80 239 12 61 14 294 14
1415 l-1 1341 -24 94 c-52 202 -156 359 -319 480 -86 65 -162 104 -273 138
l-88 28 -1361 3 c-748 1 -1362 0 -1365 -2z"/>
</g>
</svg>
